<?xml version="1.0" encoding="utf-8"?>
<!-- Generator: Adobe Illustrator 18.0.0, SVG Export Plug-In . SVG Version: 6.00 Build 0)  -->
<!DOCTYPE svg PUBLIC "-//W3C//DTD SVG 1.1//EN" "http://www.w3.org/Graphics/SVG/1.1/DTD/svg11.dtd">
<svg version="1.1" id="Layer_1" xmlns="http://www.w3.org/2000/svg" xmlns:xlink="http://www.w3.org/1999/xlink" x="0px" y="0px"
	 width="66.4px" height="42.1px" viewBox="0 0 66.4 42.1" enable-background="new 0 0 66.4 42.1" xml:space="preserve">
<path fill="#FFFFFF" d="M45.9,12.4C41,5.7,36.5,2.8,32.3,3.9l0,0C27.5-3.8,9.1,2.1,5.6,3.3c0,0-1.5,2.7-5.6,6.3L7.5,41
	c14.4-7.7,33.3-9.6,43.6-7.1c6.2,1.5,10.7,3.3,14.8,8.2l0.5-0.5C66.4,41.6,49.7,17.9,45.9,12.4"/>
<path fill="#E2B900" d="M45.9,12.4C41,5.7,36.5,2.8,32.3,3.9l0,0C27.5-3.8,9.1,2.1,5.6,3.3c0,0-1.5,2.7-5.6,6.3L7.5,41
	c14.4-7.7,33.3-9.6,43.6-7.1c6.2,1.5,10.7,3.3,14.8,8.2l0.5-0.5C66.4,41.6,49.7,17.9,45.9,12.4 M36,12.8c-6.8-2.8-19.9,0.6-26.3,2.6
	L8.9,13C15.1,11,28.2,7.8,36,12.8 M8.7,12.4L7.9,9.9c5.4-1.7,20.2-5.6,27.1,0.4C27.8,6.5,12,11.3,8.7,12.4 M36.5,15.3
	C28.7,13.1,15,17,10.7,18.4L9.9,16C21.2,12.5,30.3,12.3,36.5,15.3 M37,18c-8.4-1.6-21.9,2.4-25.4,3.5l-0.8-2.4
	C21.8,15.7,30.4,15.4,37,18 M37.4,20.7c-8.7-1-21.7,2.8-24.7,3.8l-0.8-2.4C19.5,19.8,28.7,17.9,37.4,20.7 M37.8,23.5
	c-8.9-0.6-21.3,3.1-24.2,4l-0.8-2.4C21.8,22.5,29.8,21.3,37.8,23.5 M37.9,26.4c-6.7,0-14.8,1.8-19.6,3.1c-0.5,0.1-1.1,0.3-1.6,0.5
	c-0.9,0.2-1.5,0.4-2,0.6l-0.8-2.4C22.4,25.6,29.7,24.4,37.9,26.4 M48.5,30.8l-1.3-2.1c2.6-0.9,4.8,0.1,7.4,1.7
	C52.8,29.7,50.7,29.8,48.5,30.8 M46.9,28.1l-1.2-2c2.4-1,4.8-0.2,7.3,1.4C51.1,26.8,49.2,26.9,46.9,28.1 M45.3,25.5L44,23.3
	c2.8-1,5,0,7.7,2C49.6,24.3,47.9,24.2,45.3,25.5 M43.7,22.7l-1.3-2.1c2.5-0.9,5.1,0.1,7.6,1.9C48.1,21.7,46,21.6,43.7,22.7
	 M42.1,20.1l-1.3-2.2c2.7-0.9,5.5,0.3,8,2.3C46.7,19.2,44.5,18.9,42.1,20.1 M40.4,17.3l-1.3-2.2c0.1,0,0.2-0.1,0.4-0.1
	c2.9-0.9,5.3,0.6,8,3.2C45.1,16.6,43.2,16.1,40.4,17.3 M46.3,16.1c-2.4-1.8-4.3-2.5-7-1.7c-0.2,0.1-0.3,0.1-0.5,0.2l-1.3-2.1
	C40.8,11.3,43.4,13.2,46.3,16.1 M37.2,11.9L37.2,11.9L37.2,11.9l-1.3-2.1l0,0c3.3-1,6,0.7,8.8,3.5C42.2,11.6,40,10.8,37.2,11.9
	 M43.3,11c-2.4-1.9-4.9-2.8-7.8-1.8l0,0l-1.3-2.1l0,0C37.7,6.3,40.5,8.1,43.3,11 M32.7,4.5c0.7-0.1,1.3-0.2,2-0.1
	c1.3,0.1,2.6,0.6,4,1.5c1.1,0.7,2.2,1.7,3.2,2.8c-2.8-2.2-5.4-2.8-7.9-2.1l0,0L32.7,4.5L32.7,4.5z M33.5,7.5
	c-6.9-4-22.1,0.6-25.8,1.8L6.9,6.9C11.7,5.3,27.4,0.7,33.5,7.5 M8.4,3.1L8.4,3.1L8.4,3.1C8.5,3.1,8.5,3.1,8.4,3.1
	C8.5,3,8.5,3,8.4,3.1c6.3-1.8,19.7-4.9,23.4,1.3l0,0l0.3,0.5C25.6,0.4,10.4,5,6.7,6.3L5.9,3.8C6.5,3.7,7.3,3.4,8.4,3.1L8.4,3.1z
	 M14.8,31.2c8.9-2.7,15.3-3.5,21.9-2.4c-7.1,0.4-15.6,2.6-21.2,4.6L14.8,31.2z"/>
</svg>
